<mxfile host="app.diagrams.net" agent="Mozilla/5.0 (Windows NT 10.0; Win64; x64) AppleWebKit/537.36 (KHTML, like Gecko) Chrome/129.0.0.0 Safari/537.36" version="24.7.16">
  <diagram name="Page-1" id="lagSINVxFLUQiyIXg_d7">
    <mxGraphModel dx="2784" dy="2047" grid="1" gridSize="10" guides="1" tooltips="1" connect="1" arrows="1" fold="1" page="1" pageScale="1" pageWidth="827" pageHeight="1169" math="0" shadow="0">
      <root>
        <mxCell id="0" />
        <mxCell id="1" parent="0" />
        <mxCell id="2" value="User" style="swimlane;fontStyle=1;align=center;verticalAlign=top;childLayout=stackLayout;horizontal=1;startSize=27.166666666666668;horizontalStack=0;resizeParent=1;resizeParentMax=0;resizeLast=0;collapsible=0;marginBottom=0;" parent="1" vertex="1">
          <mxGeometry x="120" y="-130" width="146" height="251.16666666666669" as="geometry" />
        </mxCell>
        <mxCell id="3" value="- userId: int" style="text;strokeColor=none;fillColor=none;align=left;verticalAlign=top;spacingLeft=4;spacingRight=4;overflow=hidden;rotatable=0;points=[[0,0.5],[1,0.5]];portConstraint=eastwest;" parent="2" vertex="1">
          <mxGeometry y="27.166666666666668" width="146" height="27" as="geometry" />
        </mxCell>
        <mxCell id="5" value="- email: varchar" style="text;strokeColor=none;fillColor=none;align=left;verticalAlign=top;spacingLeft=4;spacingRight=4;overflow=hidden;rotatable=0;points=[[0,0.5],[1,0.5]];portConstraint=eastwest;" parent="2" vertex="1">
          <mxGeometry y="54.16666666666667" width="146" height="27" as="geometry" />
        </mxCell>
        <mxCell id="4" value="- username: varchar" style="text;strokeColor=none;fillColor=none;align=left;verticalAlign=top;spacingLeft=4;spacingRight=4;overflow=hidden;rotatable=0;points=[[0,0.5],[1,0.5]];portConstraint=eastwest;" parent="2" vertex="1">
          <mxGeometry y="81.16666666666667" width="146" height="27" as="geometry" />
        </mxCell>
        <mxCell id="5fiH4wpB5IihD05hppOx-44" value="- password: varchar" style="text;strokeColor=none;fillColor=none;align=left;verticalAlign=top;spacingLeft=4;spacingRight=4;overflow=hidden;rotatable=0;points=[[0,0.5],[1,0.5]];portConstraint=eastwest;" parent="2" vertex="1">
          <mxGeometry y="108.16666666666667" width="146" height="27" as="geometry" />
        </mxCell>
        <mxCell id="5fiH4wpB5IihD05hppOx-45" value="- dateofbirth: date" style="text;strokeColor=none;fillColor=none;align=left;verticalAlign=top;spacingLeft=4;spacingRight=4;overflow=hidden;rotatable=0;points=[[0,0.5],[1,0.5]];portConstraint=eastwest;" parent="2" vertex="1">
          <mxGeometry y="135.16666666666669" width="146" height="27" as="geometry" />
        </mxCell>
        <mxCell id="tk8_prNU_f7AwfMsjvVA-232" value="- flag : int" style="text;strokeColor=none;fillColor=none;align=left;verticalAlign=top;spacingLeft=4;spacingRight=4;overflow=hidden;rotatable=0;points=[[0,0.5],[1,0.5]];portConstraint=eastwest;" vertex="1" parent="2">
          <mxGeometry y="162.16666666666669" width="146" height="27" as="geometry" />
        </mxCell>
        <mxCell id="6" style="line;strokeWidth=1;fillColor=none;align=left;verticalAlign=middle;spacingTop=-1;spacingLeft=3;spacingRight=3;rotatable=0;labelPosition=right;points=[];portConstraint=eastwest;strokeColor=inherit;" parent="2" vertex="1">
          <mxGeometry y="189.16666666666669" width="146" height="8" as="geometry" />
        </mxCell>
        <mxCell id="7" value="+login()" style="text;strokeColor=none;fillColor=none;align=left;verticalAlign=top;spacingLeft=4;spacingRight=4;overflow=hidden;rotatable=0;points=[[0,0.5],[1,0.5]];portConstraint=eastwest;" parent="2" vertex="1">
          <mxGeometry y="197.16666666666669" width="146" height="27" as="geometry" />
        </mxCell>
        <mxCell id="8" value="+logout()" style="text;strokeColor=none;fillColor=none;align=left;verticalAlign=top;spacingLeft=4;spacingRight=4;overflow=hidden;rotatable=0;points=[[0,0.5],[1,0.5]];portConstraint=eastwest;" parent="2" vertex="1">
          <mxGeometry y="224.16666666666669" width="146" height="27" as="geometry" />
        </mxCell>
        <mxCell id="9" value="Quiz" style="swimlane;fontStyle=1;align=center;verticalAlign=top;childLayout=stackLayout;horizontal=1;startSize=27.166666666666668;horizontalStack=0;resizeParent=1;resizeParentMax=0;resizeLast=0;collapsible=0;marginBottom=0;" parent="1" vertex="1">
          <mxGeometry x="-150" y="200" width="157" height="251.16666666666669" as="geometry" />
        </mxCell>
        <mxCell id="10" value="- quizId: int" style="text;strokeColor=none;fillColor=none;align=left;verticalAlign=top;spacingLeft=4;spacingRight=4;overflow=hidden;rotatable=0;points=[[0,0.5],[1,0.5]];portConstraint=eastwest;" parent="9" vertex="1">
          <mxGeometry y="27.166666666666668" width="157" height="27" as="geometry" />
        </mxCell>
        <mxCell id="5fiH4wpB5IihD05hppOx-37" value="-numofquestions: int" style="text;strokeColor=none;fillColor=none;align=left;verticalAlign=top;spacingLeft=4;spacingRight=4;overflow=hidden;rotatable=0;points=[[0,0.5],[1,0.5]];portConstraint=eastwest;" parent="9" vertex="1">
          <mxGeometry y="54.16666666666667" width="157" height="27" as="geometry" />
        </mxCell>
        <mxCell id="11" value="- title: varchar" style="text;strokeColor=none;fillColor=none;align=left;verticalAlign=top;spacingLeft=4;spacingRight=4;overflow=hidden;rotatable=0;points=[[0,0.5],[1,0.5]];portConstraint=eastwest;" parent="9" vertex="1">
          <mxGeometry y="81.16666666666667" width="157" height="27" as="geometry" />
        </mxCell>
        <mxCell id="12" value="- description: varchar" style="text;strokeColor=none;fillColor=none;align=left;verticalAlign=top;spacingLeft=4;spacingRight=4;overflow=hidden;rotatable=0;points=[[0,0.5],[1,0.5]];portConstraint=eastwest;" parent="9" vertex="1">
          <mxGeometry y="108.16666666666667" width="157" height="27" as="geometry" />
        </mxCell>
        <mxCell id="5fiH4wpB5IihD05hppOx-30" value="-fileid: int" style="text;strokeColor=#b85450;fillColor=#f8cecc;align=left;verticalAlign=top;spacingLeft=4;spacingRight=4;overflow=hidden;rotatable=0;points=[[0,0.5],[1,0.5]];portConstraint=eastwest;" parent="9" vertex="1">
          <mxGeometry y="135.16666666666669" width="157" height="27" as="geometry" />
        </mxCell>
        <mxCell id="5fiH4wpB5IihD05hppOx-38" value="-userid: int" style="text;strokeColor=#b85450;fillColor=#f8cecc;align=left;verticalAlign=top;spacingLeft=4;spacingRight=4;overflow=hidden;rotatable=0;points=[[0,0.5],[1,0.5]];portConstraint=eastwest;" parent="9" vertex="1">
          <mxGeometry y="162.16666666666669" width="157" height="27" as="geometry" />
        </mxCell>
        <mxCell id="13" style="line;strokeWidth=1;fillColor=none;align=left;verticalAlign=middle;spacingTop=-1;spacingLeft=3;spacingRight=3;rotatable=0;labelPosition=right;points=[];portConstraint=eastwest;strokeColor=inherit;" parent="9" vertex="1">
          <mxGeometry y="189.16666666666669" width="157" height="8" as="geometry" />
        </mxCell>
        <mxCell id="14" value="+startQuiz()" style="text;strokeColor=none;fillColor=none;align=left;verticalAlign=top;spacingLeft=4;spacingRight=4;overflow=hidden;rotatable=0;points=[[0,0.5],[1,0.5]];portConstraint=eastwest;" parent="9" vertex="1">
          <mxGeometry y="197.16666666666669" width="157" height="27" as="geometry" />
        </mxCell>
        <mxCell id="15" value="+submitQuiz()" style="text;strokeColor=none;fillColor=none;align=left;verticalAlign=top;spacingLeft=4;spacingRight=4;overflow=hidden;rotatable=0;points=[[0,0.5],[1,0.5]];portConstraint=eastwest;" parent="9" vertex="1">
          <mxGeometry y="224.16666666666669" width="157" height="27" as="geometry" />
        </mxCell>
        <mxCell id="16" value="File" style="swimlane;fontStyle=1;align=center;verticalAlign=top;childLayout=stackLayout;horizontal=1;startSize=27.166666666666668;horizontalStack=0;resizeParent=1;resizeParentMax=0;resizeLast=0;collapsible=0;marginBottom=0;" parent="1" vertex="1">
          <mxGeometry x="110" y="145.17" width="140" height="251.16666666666669" as="geometry" />
        </mxCell>
        <mxCell id="17" value="- fileId: int" style="text;strokeColor=none;fillColor=none;align=left;verticalAlign=top;spacingLeft=4;spacingRight=4;overflow=hidden;rotatable=0;points=[[0,0.5],[1,0.5]];portConstraint=eastwest;" parent="16" vertex="1">
          <mxGeometry y="27.166666666666668" width="140" height="27" as="geometry" />
        </mxCell>
        <mxCell id="18" value="- filename: varchar" style="text;strokeColor=none;fillColor=none;align=left;verticalAlign=top;spacingLeft=4;spacingRight=4;overflow=hidden;rotatable=0;points=[[0,0.5],[1,0.5]];portConstraint=eastwest;" parent="16" vertex="1">
          <mxGeometry y="54.16666666666667" width="140" height="27" as="geometry" />
        </mxCell>
        <mxCell id="5fiH4wpB5IihD05hppOx-42" value="- fileDeadline: int" style="text;strokeColor=none;fillColor=none;align=left;verticalAlign=top;spacingLeft=4;spacingRight=4;overflow=hidden;rotatable=0;points=[[0,0.5],[1,0.5]];portConstraint=eastwest;" parent="16" vertex="1">
          <mxGeometry y="81.16666666666667" width="140" height="27" as="geometry" />
        </mxCell>
        <mxCell id="19" value="- size: int" style="text;strokeColor=none;fillColor=none;align=left;verticalAlign=top;spacingLeft=4;spacingRight=4;overflow=hidden;rotatable=0;points=[[0,0.5],[1,0.5]];portConstraint=eastwest;" parent="16" vertex="1">
          <mxGeometry y="108.16666666666667" width="140" height="27" as="geometry" />
        </mxCell>
        <mxCell id="5fiH4wpB5IihD05hppOx-43" value="- fileURL: varchar" style="text;strokeColor=none;fillColor=none;align=left;verticalAlign=top;spacingLeft=4;spacingRight=4;overflow=hidden;rotatable=0;points=[[0,0.5],[1,0.5]];portConstraint=eastwest;" parent="16" vertex="1">
          <mxGeometry y="135.16666666666669" width="140" height="27" as="geometry" />
        </mxCell>
        <mxCell id="5fiH4wpB5IihD05hppOx-46" value="- courseid: int" style="text;strokeColor=#b85450;fillColor=#f8cecc;align=left;verticalAlign=top;spacingLeft=4;spacingRight=4;overflow=hidden;rotatable=0;points=[[0,0.5],[1,0.5]];portConstraint=eastwest;" parent="16" vertex="1">
          <mxGeometry y="162.16666666666669" width="140" height="27" as="geometry" />
        </mxCell>
        <mxCell id="20" style="line;strokeWidth=1;fillColor=none;align=left;verticalAlign=middle;spacingTop=-1;spacingLeft=3;spacingRight=3;rotatable=0;labelPosition=right;points=[];portConstraint=eastwest;strokeColor=inherit;" parent="16" vertex="1">
          <mxGeometry y="189.16666666666669" width="140" height="8" as="geometry" />
        </mxCell>
        <mxCell id="21" value="+download()" style="text;strokeColor=none;fillColor=none;align=left;verticalAlign=top;spacingLeft=4;spacingRight=4;overflow=hidden;rotatable=0;points=[[0,0.5],[1,0.5]];portConstraint=eastwest;" parent="16" vertex="1">
          <mxGeometry y="197.16666666666669" width="140" height="27" as="geometry" />
        </mxCell>
        <mxCell id="22" value="+view()" style="text;strokeColor=none;fillColor=none;align=left;verticalAlign=top;spacingLeft=4;spacingRight=4;overflow=hidden;rotatable=0;points=[[0,0.5],[1,0.5]];portConstraint=eastwest;" parent="16" vertex="1">
          <mxGeometry y="224.16666666666669" width="140" height="27" as="geometry" />
        </mxCell>
        <mxCell id="5fiH4wpB5IihD05hppOx-28" value="Question" style="swimlane;fontStyle=1;align=center;verticalAlign=top;childLayout=stackLayout;horizontal=1;startSize=27.166666666666668;horizontalStack=0;resizeParent=1;resizeParentMax=0;resizeLast=0;collapsible=0;marginBottom=0;" parent="1" vertex="1">
          <mxGeometry x="-370" y="100" width="146" height="165.16666666666669" as="geometry" />
        </mxCell>
        <mxCell id="5fiH4wpB5IihD05hppOx-29" value="- questionId: int" style="text;strokeColor=none;fillColor=none;align=left;verticalAlign=top;spacingLeft=4;spacingRight=4;overflow=hidden;rotatable=0;points=[[0,0.5],[1,0.5]];portConstraint=eastwest;" parent="5fiH4wpB5IihD05hppOx-28" vertex="1">
          <mxGeometry y="27.166666666666668" width="146" height="27" as="geometry" />
        </mxCell>
        <mxCell id="5fiH4wpB5IihD05hppOx-39" value="- questiontext: varchar" style="text;strokeColor=none;fillColor=none;align=left;verticalAlign=top;spacingLeft=4;spacingRight=4;overflow=hidden;rotatable=0;points=[[0,0.5],[1,0.5]];portConstraint=eastwest;" parent="5fiH4wpB5IihD05hppOx-28" vertex="1">
          <mxGeometry y="54.16666666666667" width="146" height="27" as="geometry" />
        </mxCell>
        <mxCell id="5fiH4wpB5IihD05hppOx-40" value="- correctanswer: varchar&#xa;" style="text;strokeColor=none;fillColor=none;align=left;verticalAlign=top;spacingLeft=4;spacingRight=4;overflow=hidden;rotatable=0;points=[[0,0.5],[1,0.5]];portConstraint=eastwest;" parent="5fiH4wpB5IihD05hppOx-28" vertex="1">
          <mxGeometry y="81.16666666666667" width="146" height="27" as="geometry" />
        </mxCell>
        <mxCell id="tk8_prNU_f7AwfMsjvVA-227" value="- choices : text or JSON" style="text;strokeColor=none;fillColor=none;align=left;verticalAlign=top;spacingLeft=4;spacingRight=4;overflow=hidden;rotatable=0;points=[[0,0.5],[1,0.5]];portConstraint=eastwest;" vertex="1" parent="5fiH4wpB5IihD05hppOx-28">
          <mxGeometry y="108.16666666666667" width="146" height="27" as="geometry" />
        </mxCell>
        <mxCell id="5fiH4wpB5IihD05hppOx-41" value="- quizId: int" style="text;strokeColor=#b85450;fillColor=#f8cecc;align=left;verticalAlign=top;spacingLeft=4;spacingRight=4;overflow=hidden;rotatable=0;points=[[0,0.5],[1,0.5]];portConstraint=eastwest;" parent="5fiH4wpB5IihD05hppOx-28" vertex="1">
          <mxGeometry y="135.16666666666669" width="146" height="30" as="geometry" />
        </mxCell>
        <mxCell id="5fiH4wpB5IihD05hppOx-47" value="Course" style="swimlane;fontStyle=1;align=center;verticalAlign=top;childLayout=stackLayout;horizontal=1;startSize=27.166666666666668;horizontalStack=0;resizeParent=1;resizeParentMax=0;resizeLast=0;collapsible=0;marginBottom=0;" parent="1" vertex="1">
          <mxGeometry x="346" y="-3.5" width="150" height="162.16666666666669" as="geometry" />
        </mxCell>
        <mxCell id="5fiH4wpB5IihD05hppOx-48" value="- courseId: int" style="text;strokeColor=none;fillColor=none;align=left;verticalAlign=top;spacingLeft=4;spacingRight=4;overflow=hidden;rotatable=0;points=[[0,0.5],[1,0.5]];portConstraint=eastwest;" parent="5fiH4wpB5IihD05hppOx-47" vertex="1">
          <mxGeometry y="27.166666666666668" width="150" height="27" as="geometry" />
        </mxCell>
        <mxCell id="5fiH4wpB5IihD05hppOx-49" value="- coursename: varchar" style="text;strokeColor=none;fillColor=none;align=left;verticalAlign=top;spacingLeft=4;spacingRight=4;overflow=hidden;rotatable=0;points=[[0,0.5],[1,0.5]];portConstraint=eastwest;" parent="5fiH4wpB5IihD05hppOx-47" vertex="1">
          <mxGeometry y="54.16666666666667" width="150" height="27" as="geometry" />
        </mxCell>
        <mxCell id="5fiH4wpB5IihD05hppOx-53" value="- description: varchar" style="text;strokeColor=none;fillColor=none;align=left;verticalAlign=top;spacingLeft=4;spacingRight=4;overflow=hidden;rotatable=0;points=[[0,0.5],[1,0.5]];portConstraint=eastwest;" parent="5fiH4wpB5IihD05hppOx-47" vertex="1">
          <mxGeometry y="81.16666666666667" width="150" height="27" as="geometry" />
        </mxCell>
        <mxCell id="5fiH4wpB5IihD05hppOx-50" value="- coursetag: varchar" style="text;strokeColor=none;fillColor=none;align=left;verticalAlign=top;spacingLeft=4;spacingRight=4;overflow=hidden;rotatable=0;points=[[0,0.5],[1,0.5]];portConstraint=eastwest;" parent="5fiH4wpB5IihD05hppOx-47" vertex="1">
          <mxGeometry y="108.16666666666667" width="150" height="27" as="geometry" />
        </mxCell>
        <mxCell id="5fiH4wpB5IihD05hppOx-54" value="- userId: int" style="text;strokeColor=#b85450;fillColor=#f8cecc;align=left;verticalAlign=top;spacingLeft=4;spacingRight=4;overflow=hidden;rotatable=0;points=[[0,0.5],[1,0.5]];portConstraint=eastwest;" parent="5fiH4wpB5IihD05hppOx-47" vertex="1">
          <mxGeometry y="135.16666666666669" width="150" height="27" as="geometry" />
        </mxCell>
        <mxCell id="5fiH4wpB5IihD05hppOx-55" value="Flashcards" style="swimlane;fontStyle=1;align=center;verticalAlign=top;childLayout=stackLayout;horizontal=1;startSize=27.166666666666668;horizontalStack=0;resizeParent=1;resizeParentMax=0;resizeLast=0;collapsible=0;marginBottom=0;" parent="1" vertex="1">
          <mxGeometry x="400" y="231" width="140" height="189.16666666666669" as="geometry" />
        </mxCell>
        <mxCell id="5fiH4wpB5IihD05hppOx-56" value="- flashcardId: int" style="text;strokeColor=none;fillColor=none;align=left;verticalAlign=top;spacingLeft=4;spacingRight=4;overflow=hidden;rotatable=0;points=[[0,0.5],[1,0.5]];portConstraint=eastwest;" parent="5fiH4wpB5IihD05hppOx-55" vertex="1">
          <mxGeometry y="27.166666666666668" width="140" height="27" as="geometry" />
        </mxCell>
        <mxCell id="5fiH4wpB5IihD05hppOx-67" value="- flashcardname: varchar" style="text;strokeColor=none;fillColor=none;align=left;verticalAlign=top;spacingLeft=4;spacingRight=4;overflow=hidden;rotatable=0;points=[[0,0.5],[1,0.5]];portConstraint=eastwest;" parent="5fiH4wpB5IihD05hppOx-55" vertex="1">
          <mxGeometry y="54.16666666666667" width="140" height="27" as="geometry" />
        </mxCell>
        <mxCell id="5fiH4wpB5IihD05hppOx-66" value="- flashcard_Q: VARCHAR" style="text;strokeColor=none;fillColor=none;align=left;verticalAlign=top;spacingLeft=4;spacingRight=4;overflow=hidden;rotatable=0;points=[[0,0.5],[1,0.5]];portConstraint=eastwest;" parent="5fiH4wpB5IihD05hppOx-55" vertex="1">
          <mxGeometry y="81.16666666666667" width="140" height="27" as="geometry" />
        </mxCell>
        <mxCell id="5fiH4wpB5IihD05hppOx-57" value="- flashcard_A: VARCHAR" style="text;strokeColor=none;fillColor=none;align=left;verticalAlign=top;spacingLeft=4;spacingRight=4;overflow=hidden;rotatable=0;points=[[0,0.5],[1,0.5]];portConstraint=eastwest;" parent="5fiH4wpB5IihD05hppOx-55" vertex="1">
          <mxGeometry y="108.16666666666667" width="140" height="27" as="geometry" />
        </mxCell>
        <mxCell id="5fiH4wpB5IihD05hppOx-58" value="- flashcardDeadline: date" style="text;strokeColor=none;fillColor=none;align=left;verticalAlign=top;spacingLeft=4;spacingRight=4;overflow=hidden;rotatable=0;points=[[0,0.5],[1,0.5]];portConstraint=eastwest;" parent="5fiH4wpB5IihD05hppOx-55" vertex="1">
          <mxGeometry y="135.16666666666669" width="140" height="27" as="geometry" />
        </mxCell>
        <mxCell id="5fiH4wpB5IihD05hppOx-65" value="- fileId: int" style="text;strokeColor=#b85450;fillColor=#f8cecc;align=left;verticalAlign=top;spacingLeft=4;spacingRight=4;overflow=hidden;rotatable=0;points=[[0,0.5],[1,0.5]];portConstraint=eastwest;" parent="5fiH4wpB5IihD05hppOx-55" vertex="1">
          <mxGeometry y="162.16666666666669" width="140" height="27" as="geometry" />
        </mxCell>
        <mxCell id="5fiH4wpB5IihD05hppOx-68" value="Answer" style="swimlane;fontStyle=1;align=center;verticalAlign=top;childLayout=stackLayout;horizontal=1;startSize=27.166666666666668;horizontalStack=0;resizeParent=1;resizeParentMax=0;resizeLast=0;collapsible=0;marginBottom=0;" parent="1" vertex="1">
          <mxGeometry x="-150" y="10" width="140" height="135.16666666666669" as="geometry" />
        </mxCell>
        <mxCell id="5fiH4wpB5IihD05hppOx-69" value="- answerid: int" style="text;strokeColor=none;fillColor=none;align=left;verticalAlign=top;spacingLeft=4;spacingRight=4;overflow=hidden;rotatable=0;points=[[0,0.5],[1,0.5]];portConstraint=eastwest;" parent="5fiH4wpB5IihD05hppOx-68" vertex="1">
          <mxGeometry y="27.166666666666668" width="140" height="27" as="geometry" />
        </mxCell>
        <mxCell id="5fiH4wpB5IihD05hppOx-70" value="- chosenanswer: VARCHAR" style="text;strokeColor=none;fillColor=none;align=left;verticalAlign=top;spacingLeft=4;spacingRight=4;overflow=hidden;rotatable=0;points=[[0,0.5],[1,0.5]];portConstraint=eastwest;" parent="5fiH4wpB5IihD05hppOx-68" vertex="1">
          <mxGeometry y="54.16666666666667" width="140" height="27" as="geometry" />
        </mxCell>
        <mxCell id="5fiH4wpB5IihD05hppOx-71" value="- isitcorrect: bool" style="text;strokeColor=none;fillColor=none;align=left;verticalAlign=top;spacingLeft=4;spacingRight=4;overflow=hidden;rotatable=0;points=[[0,0.5],[1,0.5]];portConstraint=eastwest;" parent="5fiH4wpB5IihD05hppOx-68" vertex="1">
          <mxGeometry y="81.16666666666667" width="140" height="27" as="geometry" />
        </mxCell>
        <mxCell id="5fiH4wpB5IihD05hppOx-76" value="- questionId: int" style="text;strokeColor=#b85450;fillColor=#f8cecc;align=left;verticalAlign=top;spacingLeft=4;spacingRight=4;overflow=hidden;rotatable=0;points=[[0,0.5],[1,0.5]];portConstraint=eastwest;" parent="5fiH4wpB5IihD05hppOx-68" vertex="1">
          <mxGeometry y="108.16666666666667" width="140" height="27" as="geometry" />
        </mxCell>
        <mxCell id="5fiH4wpB5IihD05hppOx-78" value="keyrems" style="swimlane;fontStyle=1;align=center;verticalAlign=top;childLayout=stackLayout;horizontal=1;startSize=27.166666666666668;horizontalStack=0;resizeParent=1;resizeParentMax=0;resizeLast=0;collapsible=0;marginBottom=0;" parent="1" vertex="1">
          <mxGeometry x="516" y="80" width="146" height="135.16666666666669" as="geometry" />
        </mxCell>
        <mxCell id="5fiH4wpB5IihD05hppOx-79" value="- keyId: int" style="text;strokeColor=none;fillColor=none;align=left;verticalAlign=top;spacingLeft=4;spacingRight=4;overflow=hidden;rotatable=0;points=[[0,0.5],[1,0.5]];portConstraint=eastwest;" parent="5fiH4wpB5IihD05hppOx-78" vertex="1">
          <mxGeometry y="27.166666666666668" width="146" height="27" as="geometry" />
        </mxCell>
        <mxCell id="5fiH4wpB5IihD05hppOx-80" value="- keytermtext: VARCHAR" style="text;strokeColor=none;fillColor=none;align=left;verticalAlign=top;spacingLeft=4;spacingRight=4;overflow=hidden;rotatable=0;points=[[0,0.5],[1,0.5]];portConstraint=eastwest;" parent="5fiH4wpB5IihD05hppOx-78" vertex="1">
          <mxGeometry y="54.16666666666667" width="146" height="27" as="geometry" />
        </mxCell>
        <mxCell id="5fiH4wpB5IihD05hppOx-81" value="- keytermdef: varchar" style="text;strokeColor=none;fillColor=none;align=left;verticalAlign=top;spacingLeft=4;spacingRight=4;overflow=hidden;rotatable=0;points=[[0,0.5],[1,0.5]];portConstraint=eastwest;" parent="5fiH4wpB5IihD05hppOx-78" vertex="1">
          <mxGeometry y="81.16666666666667" width="146" height="27" as="geometry" />
        </mxCell>
        <mxCell id="5fiH4wpB5IihD05hppOx-82" value="- fileId: int" style="text;strokeColor=#b85450;fillColor=#f8cecc;align=left;verticalAlign=top;spacingLeft=4;spacingRight=4;overflow=hidden;rotatable=0;points=[[0,0.5],[1,0.5]];portConstraint=eastwest;" parent="5fiH4wpB5IihD05hppOx-78" vertex="1">
          <mxGeometry y="108.16666666666667" width="146" height="27" as="geometry" />
        </mxCell>
        <mxCell id="5fiH4wpB5IihD05hppOx-84" value="Habit" style="swimlane;fontStyle=1;align=center;verticalAlign=top;childLayout=stackLayout;horizontal=1;startSize=27.166666666666668;horizontalStack=0;resizeParent=1;resizeParentMax=0;resizeLast=0;collapsible=0;marginBottom=0;swimlaneLine=0;" parent="1" vertex="1">
          <mxGeometry x="370" y="-189.9999999999999" width="146" height="162.16666666666669" as="geometry" />
        </mxCell>
        <mxCell id="5fiH4wpB5IihD05hppOx-87" value="- habitid: int" style="text;strokeColor=none;fillColor=none;align=left;verticalAlign=top;spacingLeft=4;spacingRight=4;overflow=hidden;rotatable=0;points=[[0,0.5],[1,0.5]];portConstraint=eastwest;" parent="5fiH4wpB5IihD05hppOx-84" vertex="1">
          <mxGeometry y="27.166666666666668" width="146" height="27" as="geometry" />
        </mxCell>
        <mxCell id="5fiH4wpB5IihD05hppOx-85" value="- habitname: varchar" style="text;strokeColor=none;fillColor=none;align=left;verticalAlign=top;spacingLeft=4;spacingRight=4;overflow=hidden;rotatable=0;points=[[0,0.5],[1,0.5]];portConstraint=eastwest;" parent="5fiH4wpB5IihD05hppOx-84" vertex="1">
          <mxGeometry y="54.16666666666667" width="146" height="27" as="geometry" />
        </mxCell>
        <mxCell id="tk8_prNU_f7AwfMsjvVA-235" value="- status: bool" style="text;strokeColor=none;fillColor=none;align=left;verticalAlign=top;spacingLeft=4;spacingRight=4;overflow=hidden;rotatable=0;points=[[0,0.5],[1,0.5]];portConstraint=eastwest;" vertex="1" parent="5fiH4wpB5IihD05hppOx-84">
          <mxGeometry y="81.16666666666667" width="146" height="27" as="geometry" />
        </mxCell>
        <mxCell id="tk8_prNU_f7AwfMsjvVA-233" value="- starting date : date" style="text;strokeColor=none;fillColor=none;align=left;verticalAlign=top;spacingLeft=4;spacingRight=4;overflow=hidden;rotatable=0;points=[[0,0.5],[1,0.5]];portConstraint=eastwest;" vertex="1" parent="5fiH4wpB5IihD05hppOx-84">
          <mxGeometry y="108.16666666666667" width="146" height="27" as="geometry" />
        </mxCell>
        <mxCell id="5fiH4wpB5IihD05hppOx-111" value="- userId: int" style="text;strokeColor=#b85450;fillColor=#f8cecc;align=left;verticalAlign=top;spacingLeft=4;spacingRight=4;overflow=hidden;rotatable=0;points=[[0,0.5],[1,0.5]];portConstraint=eastwest;" parent="5fiH4wpB5IihD05hppOx-84" vertex="1">
          <mxGeometry y="135.16666666666669" width="146" height="27" as="geometry" />
        </mxCell>
        <mxCell id="tk8_prNU_f7AwfMsjvVA-182" value="Notes" style="swimlane;fontStyle=1;align=center;verticalAlign=top;childLayout=stackLayout;horizontal=1;startSize=27.166666666666668;horizontalStack=0;resizeParent=1;resizeParentMax=0;resizeLast=0;collapsible=0;marginBottom=0;" vertex="1" parent="1">
          <mxGeometry x="350" y="470" width="146" height="135.16666666666669" as="geometry" />
        </mxCell>
        <mxCell id="tk8_prNU_f7AwfMsjvVA-187" value="- note_id: int" style="text;strokeColor=none;fillColor=none;align=left;verticalAlign=top;spacingLeft=4;spacingRight=4;overflow=hidden;rotatable=0;points=[[0,0.5],[1,0.5]];portConstraint=eastwest;" vertex="1" parent="tk8_prNU_f7AwfMsjvVA-182">
          <mxGeometry y="27.166666666666668" width="146" height="27" as="geometry" />
        </mxCell>
        <mxCell id="tk8_prNU_f7AwfMsjvVA-184" value="- note_desc: VARCHAR" style="text;strokeColor=none;fillColor=none;align=left;verticalAlign=top;spacingLeft=4;spacingRight=4;overflow=hidden;rotatable=0;points=[[0,0.5],[1,0.5]];portConstraint=eastwest;" vertex="1" parent="tk8_prNU_f7AwfMsjvVA-182">
          <mxGeometry y="54.16666666666667" width="146" height="27" as="geometry" />
        </mxCell>
        <mxCell id="tk8_prNU_f7AwfMsjvVA-185" value="- keytermdef: varchar" style="text;strokeColor=none;fillColor=none;align=left;verticalAlign=top;spacingLeft=4;spacingRight=4;overflow=hidden;rotatable=0;points=[[0,0.5],[1,0.5]];portConstraint=eastwest;" vertex="1" parent="tk8_prNU_f7AwfMsjvVA-182">
          <mxGeometry y="81.16666666666667" width="146" height="27" as="geometry" />
        </mxCell>
        <mxCell id="tk8_prNU_f7AwfMsjvVA-186" value="- fileId: int" style="text;strokeColor=#b85450;fillColor=#f8cecc;align=left;verticalAlign=top;spacingLeft=4;spacingRight=4;overflow=hidden;rotatable=0;points=[[0,0.5],[1,0.5]];portConstraint=eastwest;" vertex="1" parent="tk8_prNU_f7AwfMsjvVA-182">
          <mxGeometry y="108.16666666666667" width="146" height="27" as="geometry" />
        </mxCell>
        <mxCell id="tk8_prNU_f7AwfMsjvVA-190" value="" style="edgeStyle=entityRelationEdgeStyle;fontSize=12;html=1;endArrow=ERoneToMany;rounded=0;entryX=0;entryY=0.5;entryDx=0;entryDy=0;exitX=1;exitY=0.5;exitDx=0;exitDy=0;" edge="1" parent="1" target="5fiH4wpB5IihD05hppOx-54">
          <mxGeometry width="100" height="100" relative="1" as="geometry">
            <mxPoint x="266" y="-80.00333333333326" as="sourcePoint" />
            <mxPoint x="320" y="124.02666666666651" as="targetPoint" />
            <Array as="points">
              <mxPoint x="406" y="-237.78999999999996" />
              <mxPoint x="520" y="70.88" />
            </Array>
          </mxGeometry>
        </mxCell>
        <mxCell id="tk8_prNU_f7AwfMsjvVA-196" value="" style="edgeStyle=entityRelationEdgeStyle;fontSize=12;html=1;endArrow=ERoneToMany;rounded=0;exitX=1;exitY=0.5;exitDx=0;exitDy=0;entryX=0;entryY=0.5;entryDx=0;entryDy=0;" edge="1" parent="1" target="5fiH4wpB5IihD05hppOx-111">
          <mxGeometry width="100" height="100" relative="1" as="geometry">
            <mxPoint x="266" y="-94.00333333333326" as="sourcePoint" />
            <mxPoint x="350" y="-160.00333333333325" as="targetPoint" />
            <Array as="points">
              <mxPoint x="460" y="-312.46" />
              <mxPoint x="574" y="-3.7900000000000045" />
              <mxPoint x="300" y="-164.67" />
              <mxPoint x="300" y="-148.67" />
            </Array>
          </mxGeometry>
        </mxCell>
        <mxCell id="tk8_prNU_f7AwfMsjvVA-206" value="" style="edgeStyle=entityRelationEdgeStyle;fontSize=12;html=1;endArrow=ERoneToMany;rounded=0;entryX=0;entryY=0.5;entryDx=0;entryDy=0;exitX=0.997;exitY=0.708;exitDx=0;exitDy=0;exitPerimeter=0;" edge="1" parent="1" source="17" target="5fiH4wpB5IihD05hppOx-65">
          <mxGeometry width="100" height="100" relative="1" as="geometry">
            <mxPoint x="276" y="185.17" as="sourcePoint" />
            <mxPoint x="409" y="360.83666666666653" as="targetPoint" />
            <Array as="points">
              <mxPoint x="380" y="190" />
              <mxPoint x="373" y="270" />
              <mxPoint x="340" y="270" />
              <mxPoint x="360" y="280" />
            </Array>
          </mxGeometry>
        </mxCell>
        <mxCell id="tk8_prNU_f7AwfMsjvVA-207" value="" style="edgeStyle=entityRelationEdgeStyle;fontSize=12;html=1;endArrow=ERoneToMany;rounded=0;entryX=0;entryY=0.5;entryDx=0;entryDy=0;exitX=1;exitY=0.5;exitDx=0;exitDy=0;" edge="1" parent="1" source="17" target="tk8_prNU_f7AwfMsjvVA-186">
          <mxGeometry width="100" height="100" relative="1" as="geometry">
            <mxPoint x="270" y="214" as="sourcePoint" />
            <mxPoint x="330" y="615.1666666666665" as="targetPoint" />
          </mxGeometry>
        </mxCell>
        <mxCell id="tk8_prNU_f7AwfMsjvVA-211" value="" style="edgeStyle=entityRelationEdgeStyle;fontSize=12;html=1;endArrow=ERoneToMany;rounded=0;entryX=1;entryY=0.5;entryDx=0;entryDy=0;exitX=0;exitY=0.5;exitDx=0;exitDy=0;" edge="1" parent="1" source="17" target="5fiH4wpB5IihD05hppOx-30">
          <mxGeometry width="100" height="100" relative="1" as="geometry">
            <mxPoint x="-50" y="440" as="sourcePoint" />
            <mxPoint x="190" y="200" as="targetPoint" />
            <Array as="points">
              <mxPoint x="10" y="200" />
              <mxPoint x="-30" y="270" />
              <mxPoint x="10" y="220" />
              <mxPoint x="10" y="200" />
            </Array>
          </mxGeometry>
        </mxCell>
        <mxCell id="tk8_prNU_f7AwfMsjvVA-213" value="" style="edgeStyle=entityRelationEdgeStyle;fontSize=12;html=1;endArrow=ERoneToMany;rounded=0;exitX=1;exitY=0.5;exitDx=0;exitDy=0;" edge="1" parent="1" source="17" target="5fiH4wpB5IihD05hppOx-82">
          <mxGeometry width="100" height="100" relative="1" as="geometry">
            <mxPoint x="339.99999999999966" y="260.74666666666667" as="sourcePoint" />
            <mxPoint x="339.15999999999997" y="696.7566666666665" as="targetPoint" />
            <Array as="points">
              <mxPoint x="359.15999999999997" y="305.76" />
              <mxPoint x="319.15999999999997" y="177.11" />
              <mxPoint x="433.15999999999997" y="485.7799999999999" />
              <mxPoint x="250" y="520" />
              <mxPoint x="245" y="500" />
              <mxPoint x="320" y="500" />
              <mxPoint x="280" y="500" />
              <mxPoint x="310" y="500" />
            </Array>
          </mxGeometry>
        </mxCell>
        <mxCell id="tk8_prNU_f7AwfMsjvVA-219" value="" style="edgeStyle=entityRelationEdgeStyle;fontSize=12;html=1;endArrow=ERoneToMany;rounded=0;exitX=0;exitY=0.5;exitDx=0;exitDy=0;entryX=1;entryY=0.5;entryDx=0;entryDy=0;" edge="1" parent="1" source="10" target="5fiH4wpB5IihD05hppOx-41">
          <mxGeometry width="100" height="100" relative="1" as="geometry">
            <mxPoint x="-271" y="259.9966666666665" as="sourcePoint" />
            <mxPoint x="-330" y="279.33" as="targetPoint" />
          </mxGeometry>
        </mxCell>
        <mxCell id="tk8_prNU_f7AwfMsjvVA-229" value="" style="edgeStyle=entityRelationEdgeStyle;fontSize=12;html=1;endArrow=ERoneToMany;rounded=0;exitX=0;exitY=0.5;exitDx=0;exitDy=0;" edge="1" parent="1" source="3" target="5fiH4wpB5IihD05hppOx-38">
          <mxGeometry width="100" height="100" relative="1" as="geometry">
            <mxPoint x="23" y="-228.83333333333354" as="sourcePoint" />
            <mxPoint x="-310.00000000000045" y="405.6666666666665" as="targetPoint" />
          </mxGeometry>
        </mxCell>
        <mxCell id="tk8_prNU_f7AwfMsjvVA-230" value="" style="edgeStyle=entityRelationEdgeStyle;fontSize=12;html=1;endArrow=ERmandOne;startArrow=ERmandOne;rounded=0;exitX=1;exitY=0.5;exitDx=0;exitDy=0;entryX=0;entryY=0.5;entryDx=0;entryDy=0;" edge="1" parent="1" source="5fiH4wpB5IihD05hppOx-29" target="5fiH4wpB5IihD05hppOx-76">
          <mxGeometry width="100" height="100" relative="1" as="geometry">
            <mxPoint x="-230" y="141.08" as="sourcePoint" />
            <mxPoint x="-130" y="41.08000000000001" as="targetPoint" />
          </mxGeometry>
        </mxCell>
        <mxCell id="tk8_prNU_f7AwfMsjvVA-231" value="" style="edgeStyle=entityRelationEdgeStyle;fontSize=12;html=1;endArrow=ERoneToMany;rounded=0;exitX=0;exitY=0.5;exitDx=0;exitDy=0;entryX=1;entryY=0.5;entryDx=0;entryDy=0;" edge="1" parent="1" source="5fiH4wpB5IihD05hppOx-48" target="5fiH4wpB5IihD05hppOx-46">
          <mxGeometry width="100" height="100" relative="1" as="geometry">
            <mxPoint x="740" y="-20" as="sourcePoint" />
            <mxPoint x="840" y="-120" as="targetPoint" />
          </mxGeometry>
        </mxCell>
      </root>
    </mxGraphModel>
  </diagram>
</mxfile>
